<svg width="180" height="180" viewBox="0 0 180 180" xmlns="http://www.w3.org/2000/svg">
  <!-- خلفية خضراء داكنة بهوية النظام -->
  <defs>
    <linearGradient id="bg" x1="0" y1="0" x2="1" y2="1">
      <stop offset="0%" stop-color="#0b1a10"/>
      <stop offset="60%" stop-color="#132a18"/>
      <stop offset="100%" stop-color="#1e4028"/>
    </linearGradient>
    <linearGradient id="gold" x1="0" y1="0" x2="1" y2="1">
      <stop offset="0%" stop-color="#E8BE55"/>
      <stop offset="50%" stop-color="#D4A534"/>
      <stop offset="100%" stop-color="#A87C20"/>
    </linearGradient>
  </defs>
  <rect width="180" height="180" rx="36" fill="url(#bg)"/>
  <rect x="6" y="6" width="168" height="168" rx="30" fill="none" stroke="rgba(212,165,52,0.35)" stroke-width="2"/>
  <!-- مستند مناقصة -->
  <path d="M56 38 h48 l20 20 v84 a6 6 0 0 1 -6 6 H56 a6 6 0 0 1 -6 -6 V44 a6 6 0 0 1 6 -6 z"
        fill="rgba(255,255,255,0.96)"/>
  <path d="M104 38 v20 h20 z" fill="url(#gold)"/>
  <!-- سطور -->
  <rect x="62" y="74"  width="56" height="7" rx="3.5" fill="#132a18" opacity="0.85"/>
  <rect x="62" y="90"  width="44" height="7" rx="3.5" fill="#132a18" opacity="0.55"/>
  <rect x="62" y="106" width="50" height="7" rx="3.5" fill="#132a18" opacity="0.55"/>
  <!-- ختم ذهبي -->
  <circle cx="106" cy="126" r="15" fill="url(#gold)"/>
  <path d="M99.5 126 l4.5 4.5 l9 -9" stroke="#0b1a10" stroke-width="3.4" fill="none" stroke-linecap="round" stroke-linejoin="round"/>
</svg>
